<svg width="21" height="28" viewBox="0 0 21 28" fill="none" xmlns="http://www.w3.org/2000/svg">
<path d="M3.243 10.6571L0.707609 8.12251C0.316825 7.73185 0.316776 7.09835 0.7075 6.70762C1.09822 6.3169 1.73173 6.31695 2.12239 6.70773L4.657 9.24312H19.899C20.0549 9.24311 20.2086 9.27954 20.3479 9.34949C20.4872 9.41944 20.6082 9.52099 20.7012 9.64602C20.7943 9.77105 20.8569 9.91611 20.8839 10.0696C20.9109 10.2231 20.9017 10.3808 20.857 10.5301L18.457 18.5301C18.3953 18.7362 18.2687 18.9169 18.0961 19.0453C17.9235 19.1738 17.7141 19.2431 17.499 19.2431H5.243V21.2431H15.243C15.7953 21.2431 16.243 21.6908 16.243 22.2431C16.243 22.7954 15.7953 23.2431 15.243 23.2431H4.243C3.97778 23.2431 3.72343 23.1378 3.53589 22.9502C3.34836 22.7627 3.243 22.5083 3.243 22.2431V10.6571ZM5.243 11.2431V17.2431H16.755L18.555 11.2431H5.243ZM4.743 27.2431C4.34518 27.2431 3.96364 27.0851 3.68234 26.8038C3.40104 26.5225 3.243 26.1409 3.243 25.7431C3.243 25.3453 3.40104 24.9638 3.68234 24.6825C3.96364 24.4012 4.34518 24.2431 4.743 24.2431C5.14082 24.2431 5.52236 24.4012 5.80366 24.6825C6.08496 24.9638 6.243 25.3453 6.243 25.7431C6.243 26.1409 6.08496 26.5225 5.80366 26.8038C5.52236 27.0851 5.14082 27.2431 4.743 27.2431ZM16.743 27.2431C16.3452 27.2431 15.9636 27.0851 15.6823 26.8038C15.401 26.5225 15.243 26.1409 15.243 25.7431C15.243 25.3453 15.401 24.9638 15.6823 24.6825C15.9636 24.4012 16.3452 24.2431 16.743 24.2431C17.1408 24.2431 17.5224 24.4012 17.8037 24.6825C18.085 24.9638 18.243 25.3453 18.243 25.7431C18.243 26.1409 18.085 26.5225 17.8037 26.8038C17.5224 27.0851 17.1408 27.2431 16.743 27.2431Z" fill="#04103B"/>
<path d="M9.87847 3.47717L12.3556 1.00006L14.8327 3.47717" stroke="#04103B" stroke-width="2" stroke-linecap="round" stroke-linejoin="round"/>
<path d="M12.348 1.00761V7.70357" stroke="#04103B" stroke-width="2" stroke-linecap="round" stroke-linejoin="round"/>
</svg>
