<svg width="45" height="45" viewBox="0 0 45 45" fill="none" xmlns="http://www.w3.org/2000/svg">
<circle cx="22.5" cy="22.5" r="21.5" stroke="white"/>
<path d="M12 33C12 30.8783 12.8429 28.8434 14.3431 27.3431C15.8434 25.8429 17.8783 25 20 25C22.1217 25 24.1566 25.8429 25.6569 27.3431C27.1571 28.8434 28 30.8783 28 33H12ZM20 24C16.685 24 14 21.315 14 18C14 14.685 16.685 12 20 12C23.315 12 26 14.685 26 18C26 21.315 23.315 24 20 24Z" stroke="#04103B" stroke-width="2" stroke-linecap="round" stroke-linejoin="round"/>
<path d="M27 13C29.4862 13 31.5 15.4293 31.5 18.4286C31.5 21.4279 29.4862 23.7619 27 23.7619C28.5913 23.7619 30.1174 24.5245 31.2426 25.8819C32.3679 27.2393 33 29.0803 33 31H30.4286" stroke="#04103B" stroke-width="2" stroke-linecap="round" stroke-linejoin="round"/>
</svg>
